<svg width="245" height="245" viewBox="0 0 245 245" fill="none" xmlns="http://www.w3.org/2000/svg">
<circle cx="122.5" cy="122.5" r="121" stroke="url(#paint0_linear_101_1787)" stroke-width="3"/>
<path d="M73.9062 154.176V159H70.4785V144.781H76.1523C77.2396 144.781 78.1999 144.983 79.0332 145.387C79.873 145.784 80.5208 146.354 80.9766 147.096C81.4388 147.831 81.6699 148.668 81.6699 149.605C81.6699 150.992 81.1719 152.102 80.1758 152.936C79.1862 153.762 77.8255 154.176 76.0938 154.176H73.9062ZM73.9062 151.529H76.1523C76.8164 151.529 77.321 151.363 77.666 151.031C78.0176 150.699 78.1934 150.23 78.1934 149.625C78.1934 148.961 78.0143 148.43 77.6562 148.033C77.2982 147.636 76.8099 147.434 76.1914 147.428H73.9062V151.529ZM89.1895 159C89.0723 158.785 88.9681 158.469 88.877 158.053C88.2715 158.814 87.4251 159.195 86.3379 159.195C85.3418 159.195 84.4954 158.896 83.7988 158.297C83.1022 157.691 82.7539 156.933 82.7539 156.021C82.7539 154.876 83.1771 154.01 84.0234 153.424C84.8698 152.838 86.1003 152.545 87.7148 152.545H88.7305V151.988C88.7305 151.018 88.3105 150.533 87.4707 150.533C86.6895 150.533 86.2988 150.917 86.2988 151.686H83.0078C83.0078 150.663 83.4408 149.833 84.3066 149.195C85.179 148.557 86.2891 148.238 87.6367 148.238C88.9844 148.238 90.0488 148.567 90.8301 149.225C91.6113 149.882 92.0117 150.784 92.0312 151.93V156.607C92.0443 157.577 92.194 158.32 92.4805 158.834V159H89.1895ZM87.1289 156.852C87.5391 156.852 87.8776 156.764 88.1445 156.588C88.418 156.412 88.6133 156.214 88.7305 155.992V154.303H87.7734C86.6276 154.303 86.0547 154.817 86.0547 155.846C86.0547 156.145 86.1556 156.389 86.3574 156.578C86.5592 156.76 86.8164 156.852 87.1289 156.852ZM96.8848 148.434L96.9922 149.674C97.7214 148.717 98.7272 148.238 100.01 148.238C101.11 148.238 101.93 148.567 102.471 149.225C103.018 149.882 103.301 150.872 103.32 152.193V159H100.02V152.33C100.02 151.796 99.9121 151.406 99.6973 151.158C99.4824 150.904 99.0918 150.777 98.5254 150.777C97.8809 150.777 97.4023 151.031 97.0898 151.539V159H93.7988V148.434H96.8848ZM104.736 153.639C104.736 151.965 105.098 150.647 105.82 149.684C106.543 148.72 107.552 148.238 108.848 148.238C109.792 148.238 110.586 148.609 111.23 149.352V144H114.531V159H111.572L111.406 157.867C110.729 158.753 109.87 159.195 108.828 159.195C107.572 159.195 106.576 158.714 105.84 157.75C105.104 156.786 104.736 155.416 104.736 153.639ZM108.027 153.844C108.027 155.719 108.574 156.656 109.668 156.656C110.397 156.656 110.918 156.35 111.23 155.738V151.715C110.931 151.09 110.417 150.777 109.688 150.777C108.672 150.777 108.122 151.598 108.037 153.238L108.027 153.844ZM122.354 159C122.236 158.785 122.132 158.469 122.041 158.053C121.436 158.814 120.589 159.195 119.502 159.195C118.506 159.195 117.66 158.896 116.963 158.297C116.266 157.691 115.918 156.933 115.918 156.021C115.918 154.876 116.341 154.01 117.188 153.424C118.034 152.838 119.264 152.545 120.879 152.545H121.895V151.988C121.895 151.018 121.475 150.533 120.635 150.533C119.854 150.533 119.463 150.917 119.463 151.686H116.172C116.172 150.663 116.605 149.833 117.471 149.195C118.343 148.557 119.453 148.238 120.801 148.238C122.148 148.238 123.213 148.567 123.994 149.225C124.775 149.882 125.176 150.784 125.195 151.93V156.607C125.208 157.577 125.358 158.32 125.645 158.834V159H122.354ZM120.293 156.852C120.703 156.852 121.042 156.764 121.309 156.588C121.582 156.412 121.777 156.214 121.895 155.992V154.303H120.938C119.792 154.303 119.219 154.817 119.219 155.846C119.219 156.145 119.32 156.389 119.521 156.578C119.723 156.76 119.98 156.852 120.293 156.852ZM131.621 153.639C131.621 152.571 131.797 151.627 132.148 150.807C132.5 149.986 133.005 149.355 133.662 148.912C134.32 148.463 135.085 148.238 135.957 148.238C137.057 148.238 137.917 148.609 138.535 149.352L138.652 148.434H141.641V158.6C141.641 159.531 141.423 160.338 140.986 161.021C140.557 161.712 139.932 162.239 139.111 162.604C138.291 162.975 137.34 163.16 136.26 163.16C135.485 163.16 134.733 163.014 134.004 162.721C133.281 162.428 132.728 162.047 132.344 161.578L133.721 159.645C134.333 160.367 135.14 160.729 136.143 160.729C137.601 160.729 138.33 159.98 138.33 158.482V158.15C137.699 158.847 136.901 159.195 135.938 159.195C134.648 159.195 133.607 158.704 132.812 157.721C132.018 156.731 131.621 155.41 131.621 153.756V153.639ZM134.922 153.844C134.922 154.71 135.085 155.396 135.41 155.904C135.736 156.406 136.191 156.656 136.777 156.656C137.487 156.656 138.005 156.419 138.33 155.943V151.5C138.011 151.018 137.5 150.777 136.797 150.777C136.211 150.777 135.752 151.041 135.42 151.568C135.088 152.089 134.922 152.848 134.922 153.844ZM148.623 159.195C147.002 159.195 145.69 158.714 144.688 157.75C143.685 156.78 143.184 155.52 143.184 153.971V153.697C143.184 152.617 143.382 151.663 143.779 150.836C144.183 150.009 144.769 149.371 145.537 148.922C146.305 148.466 147.217 148.238 148.271 148.238C149.756 148.238 150.928 148.701 151.787 149.625C152.646 150.543 153.076 151.826 153.076 153.473V154.752H146.533C146.65 155.344 146.908 155.81 147.305 156.148C147.702 156.487 148.216 156.656 148.848 156.656C149.889 156.656 150.703 156.292 151.289 155.562L152.793 157.34C152.383 157.906 151.8 158.359 151.045 158.697C150.296 159.029 149.489 159.195 148.623 159.195ZM148.252 150.777C147.288 150.777 146.715 151.415 146.533 152.691H149.854V152.438C149.867 151.91 149.733 151.503 149.453 151.217C149.173 150.924 148.773 150.777 148.252 150.777ZM158.242 145.807V148.434H159.98V150.719H158.242V155.553C158.242 155.95 158.314 156.227 158.457 156.383C158.6 156.539 158.883 156.617 159.307 156.617C159.632 156.617 159.906 156.598 160.127 156.559V158.912C159.535 159.101 158.916 159.195 158.271 159.195C157.139 159.195 156.302 158.928 155.762 158.395C155.221 157.861 154.951 157.05 154.951 155.963V150.719H153.604V148.434H154.951V145.807H158.242ZM166.816 156.031C166.816 155.751 166.67 155.527 166.377 155.357C166.084 155.188 165.527 155.012 164.707 154.83C163.887 154.648 163.21 154.41 162.676 154.117C162.142 153.818 161.735 153.456 161.455 153.033C161.175 152.61 161.035 152.125 161.035 151.578C161.035 150.608 161.436 149.811 162.236 149.186C163.037 148.554 164.085 148.238 165.381 148.238C166.774 148.238 167.894 148.554 168.74 149.186C169.587 149.817 170.01 150.647 170.01 151.676H166.709C166.709 150.829 166.263 150.406 165.371 150.406C165.026 150.406 164.736 150.504 164.502 150.699C164.268 150.888 164.15 151.126 164.15 151.412C164.15 151.705 164.294 151.943 164.58 152.125C164.867 152.307 165.322 152.457 165.947 152.574C166.579 152.691 167.132 152.831 167.607 152.994C169.196 153.541 169.99 154.521 169.99 155.934C169.99 156.897 169.561 157.682 168.701 158.287C167.848 158.893 166.742 159.195 165.381 159.195C164.476 159.195 163.669 159.033 162.959 158.707C162.249 158.382 161.696 157.939 161.299 157.379C160.902 156.819 160.703 156.23 160.703 155.611H163.779C163.792 156.1 163.955 156.458 164.268 156.686C164.58 156.907 164.98 157.018 165.469 157.018C165.918 157.018 166.253 156.926 166.475 156.744C166.702 156.562 166.816 156.324 166.816 156.031ZM73.8086 168.807V171.434H75.5469V173.719H73.8086V178.553C73.8086 178.95 73.8802 179.227 74.0234 179.383C74.1667 179.539 74.4499 179.617 74.873 179.617C75.1986 179.617 75.472 179.598 75.6934 179.559V181.912C75.1009 182.101 74.4824 182.195 73.8379 182.195C72.7051 182.195 71.8685 181.928 71.3281 181.395C70.7878 180.861 70.5176 180.05 70.5176 178.963V173.719H69.1699V171.434H70.5176V168.807H73.8086ZM80.0684 172.566C80.7715 171.681 81.6699 171.238 82.7637 171.238C83.929 171.238 84.8079 171.583 85.4004 172.273C85.9928 172.964 86.2956 173.982 86.3086 175.33V182H83.0078V175.408C83.0078 174.848 82.8939 174.438 82.666 174.178C82.4382 173.911 82.0508 173.777 81.5039 173.777C80.8268 173.777 80.3483 173.992 80.0684 174.422V182H76.7773V167H80.0684V172.566ZM93.252 182.195C91.6309 182.195 90.319 181.714 89.3164 180.75C88.3138 179.78 87.8125 178.52 87.8125 176.971V176.697C87.8125 175.617 88.0111 174.663 88.4082 173.836C88.8118 173.009 89.3978 172.371 90.166 171.922C90.9342 171.466 91.8457 171.238 92.9004 171.238C94.3848 171.238 95.5566 171.701 96.416 172.625C97.2754 173.543 97.7051 174.826 97.7051 176.473V177.752H91.1621C91.2793 178.344 91.5365 178.81 91.9336 179.148C92.3307 179.487 92.8451 179.656 93.4766 179.656C94.5182 179.656 95.332 179.292 95.918 178.562L97.4219 180.34C97.0117 180.906 96.429 181.359 95.6738 181.697C94.9251 182.029 94.1178 182.195 93.252 182.195ZM92.8809 173.777C91.9173 173.777 91.3444 174.415 91.1621 175.691H94.4824V175.438C94.4954 174.91 94.362 174.503 94.082 174.217C93.8021 173.924 93.4017 173.777 92.8809 173.777ZM113.828 176.805C113.828 178.536 113.47 179.868 112.754 180.799C112.038 181.73 111.029 182.195 109.727 182.195C108.652 182.195 107.786 181.769 107.129 180.916L106.992 182H104.043V167H107.334V172.283C107.946 171.587 108.737 171.238 109.707 171.238C111.022 171.238 112.038 171.71 112.754 172.654C113.47 173.598 113.828 174.926 113.828 176.639V176.805ZM110.527 176.6C110.527 175.584 110.391 174.861 110.117 174.432C109.85 173.995 109.437 173.777 108.877 173.777C108.135 173.777 107.62 174.061 107.334 174.627V178.826C107.614 179.386 108.135 179.666 108.896 179.666C109.671 179.666 110.163 179.288 110.371 178.533C110.475 178.162 110.527 177.518 110.527 176.6ZM121.24 182C121.123 181.785 121.019 181.469 120.928 181.053C120.322 181.814 119.476 182.195 118.389 182.195C117.393 182.195 116.546 181.896 115.85 181.297C115.153 180.691 114.805 179.933 114.805 179.021C114.805 177.876 115.228 177.01 116.074 176.424C116.921 175.838 118.151 175.545 119.766 175.545H120.781V174.988C120.781 174.018 120.361 173.533 119.521 173.533C118.74 173.533 118.35 173.917 118.35 174.686H115.059C115.059 173.663 115.492 172.833 116.357 172.195C117.23 171.557 118.34 171.238 119.688 171.238C121.035 171.238 122.1 171.567 122.881 172.225C123.662 172.882 124.062 173.784 124.082 174.93V179.607C124.095 180.577 124.245 181.32 124.531 181.834V182H121.24ZM119.18 179.852C119.59 179.852 119.928 179.764 120.195 179.588C120.469 179.412 120.664 179.214 120.781 178.992V177.303H119.824C118.678 177.303 118.105 177.817 118.105 178.846C118.105 179.145 118.206 179.389 118.408 179.578C118.61 179.76 118.867 179.852 119.18 179.852ZM129.023 171.434L129.131 172.674C129.88 171.717 130.885 171.238 132.148 171.238C133.483 171.238 134.385 171.769 134.854 172.83C135.57 171.769 136.605 171.238 137.959 171.238C140.101 171.238 141.201 172.534 141.26 175.125V182H137.959V175.33C137.959 174.79 137.868 174.396 137.686 174.148C137.503 173.901 137.171 173.777 136.689 173.777C136.038 173.777 135.553 174.067 135.234 174.646L135.244 174.783V182H131.943V175.35C131.943 174.796 131.855 174.396 131.68 174.148C131.504 173.901 131.169 173.777 130.674 173.777C130.042 173.777 129.561 174.067 129.229 174.646V182H125.938V171.434H129.023ZM152.949 176.805C152.949 178.536 152.591 179.868 151.875 180.799C151.159 181.73 150.15 182.195 148.848 182.195C147.773 182.195 146.908 181.769 146.25 180.916L146.113 182H143.164V167H146.455V172.283C147.067 171.587 147.858 171.238 148.828 171.238C150.143 171.238 151.159 171.71 151.875 172.654C152.591 173.598 152.949 174.926 152.949 176.639V176.805ZM149.648 176.6C149.648 175.584 149.512 174.861 149.238 174.432C148.971 173.995 148.558 173.777 147.998 173.777C147.256 173.777 146.742 174.061 146.455 174.627V178.826C146.735 179.386 147.256 179.666 148.018 179.666C148.792 179.666 149.284 179.288 149.492 178.533C149.596 178.162 149.648 177.518 149.648 176.6ZM153.994 176.619C153.994 175.564 154.199 174.627 154.609 173.807C155.02 172.98 155.609 172.345 156.377 171.902C157.145 171.46 158.047 171.238 159.082 171.238C160.664 171.238 161.911 171.73 162.822 172.713C163.734 173.689 164.189 175.021 164.189 176.707V176.824C164.189 178.471 163.73 179.78 162.812 180.75C161.901 181.714 160.664 182.195 159.102 182.195C157.598 182.195 156.39 181.746 155.479 180.848C154.567 179.943 154.076 178.719 154.004 177.176L153.994 176.619ZM157.285 176.824C157.285 177.801 157.438 178.517 157.744 178.973C158.05 179.428 158.503 179.656 159.102 179.656C160.273 179.656 160.872 178.755 160.898 176.951V176.619C160.898 174.725 160.293 173.777 159.082 173.777C157.982 173.777 157.386 174.594 157.295 176.229L157.285 176.824ZM165.225 176.619C165.225 175.564 165.43 174.627 165.84 173.807C166.25 172.98 166.839 172.345 167.607 171.902C168.376 171.46 169.277 171.238 170.312 171.238C171.895 171.238 173.141 171.73 174.053 172.713C174.964 173.689 175.42 175.021 175.42 176.707V176.824C175.42 178.471 174.961 179.78 174.043 180.75C173.132 181.714 171.895 182.195 170.332 182.195C168.828 182.195 167.62 181.746 166.709 180.848C165.798 179.943 165.306 178.719 165.234 177.176L165.225 176.619ZM168.516 176.824C168.516 177.801 168.669 178.517 168.975 178.973C169.281 179.428 169.733 179.656 170.332 179.656C171.504 179.656 172.103 178.755 172.129 176.951V176.619C172.129 174.725 171.523 173.777 170.312 173.777C169.212 173.777 168.617 174.594 168.525 176.229L168.516 176.824Z" fill="#4F4F4F"/>
<g clip-path="url(#clip0_101_1787)">
<path d="M90.2567 115.232C90.2567 115.843 89.7613 116.338 89.1503 116.338C88.5393 116.338 88.0439 115.843 88.0439 115.232C88.0439 114.621 88.5393 114.125 89.1503 114.125C89.7613 114.125 90.2567 114.621 90.2567 115.232ZM129.03 97.1017C127.487 98.2606 125.652 98.873 123.722 98.873C123.1 98.873 122.525 98.6665 122.062 98.3183C121.6 98.6665 121.025 98.873 120.402 98.873C118.398 98.873 116.506 98.2169 114.931 96.9757C114.451 96.5973 114.368 95.9015 114.747 95.4214C115.125 94.9415 115.821 94.8588 116.301 95.2372C117.482 96.1678 118.9 96.6596 120.402 96.6596C120.707 96.6596 120.956 96.4114 120.956 96.1063V94.3061C119.049 93.8134 117.635 92.0783 117.635 90.0194C117.635 88.7989 118.628 87.806 119.849 87.806H124.276C125.496 87.806 126.489 88.7989 126.489 90.0194C126.489 92.0783 125.076 93.8134 123.169 94.3061V96.1063C123.169 96.4114 123.417 96.6596 123.722 96.6596C125.169 96.6596 126.544 96.2006 127.7 95.3321C128.189 94.9648 128.883 95.0635 129.25 95.5522C129.617 96.041 129.518 96.7348 129.03 97.1017ZM122.062 92.2328C123.283 92.2328 124.276 91.2399 124.276 90.0194H119.849C119.849 91.2399 120.842 92.2328 122.062 92.2328ZM118.243 83.8136L116.607 86.6482C115.026 89.2518 112.027 89.5838 109.996 88.4194C107.985 87.2659 107.297 84.6829 108.457 82.6747L109.983 80.0317C111.347 77.6682 114.381 76.8553 116.744 78.22C118.7 79.3489 119.372 81.8581 118.243 83.8136ZM114.69 85.5415L115.368 84.3669H114.508C113.035 84.3669 113.035 82.1535 114.508 82.1535H116.537C116.699 81.379 116.366 80.5417 115.638 80.1368C114.297 79.3915 112.662 79.827 111.9 81.1385L110.374 83.7814C109.825 84.7327 110.155 85.9477 111.103 86.5026C112.616 87.3883 114.206 86.4672 114.69 85.5415ZM134.128 88.4194C131.948 89.6588 129.017 89.1555 127.518 86.6482L125.881 83.8136C124.752 81.8581 125.425 79.3489 127.38 78.22C129.744 76.8553 132.777 77.6682 134.142 80.0317L135.668 82.6747C136.827 84.6829 136.144 87.2736 134.128 88.4194ZM133.751 83.7814L132.225 81.1385C131.47 79.8318 129.794 79.3824 128.487 80.1368C127.765 80.5533 127.425 81.379 127.587 82.1535H129.616C131.09 82.1535 131.09 84.3669 129.616 84.3669H128.756L129.434 85.5415C129.988 86.5423 131.526 87.3455 133.021 86.5026C133.979 85.9632 134.3 84.7326 133.751 83.7814ZM140.821 82.7317C142.866 87.0136 142.687 91.9307 140.28 96.1C139.805 96.923 139.26 97.6848 138.657 98.3814C140.554 105.375 140.688 112.764 139.039 119.792C138.566 121.811 136.792 123.22 134.726 123.22H132.295C128.644 123.22 125.073 122.39 121.839 120.825C121.001 121.911 119.404 123.22 117.02 123.22H96.2297C94.077 123.22 91.7744 122.34 90.1373 120.499C89.7321 120.043 89.7737 119.349 90.2225 118.936C90.6998 118.497 91.4102 118.603 91.7852 119.022C92.9161 120.285 94.5397 121.007 96.2319 121.007H98.4924C96.5228 118.383 95.7614 114.96 96.6007 111.716C98.0445 106.137 102.612 103.86 105.908 103.386C104.358 100.176 103.199 96.7752 102.477 93.2614C96.1077 96.9337 91.8044 103.124 90.5833 110.452C90.4936 110.989 89.993 111.461 89.3095 111.363C88.7349 111.281 88.2935 110.714 88.3998 110.089C90.2351 99.3069 97.4153 93.4556 102.048 90.9619C101.64 88.1912 102.056 85.3435 103.303 82.7317C101.212 81.1404 99.948 78.6395 99.948 75.9801C99.948 71.3058 103.751 67.503 108.425 67.503C110.307 67.503 112.109 68.1212 113.585 69.2571C116.1 67.7962 119.001 67 122.062 67C125.124 67 128.025 67.7961 130.54 69.2571C132.016 68.1213 133.818 67.5031 135.7 67.5031C140.374 67.5031 144.177 71.3058 144.177 75.9802C144.177 78.6394 142.913 81.1404 140.821 82.7317ZM104.386 80.7631L107.467 75.4268C108.566 73.5233 109.98 71.8983 111.623 70.5962C110.663 70.024 109.564 69.7164 108.425 69.7164C104.971 69.7164 102.162 72.5263 102.162 75.9801C102.161 77.8338 102.993 79.5833 104.386 80.7631ZM119.857 119.747C118.681 119.035 117.562 118.22 116.514 117.305C112.661 113.94 109.454 109.939 107.013 105.522C103.114 105.664 99.696 108.411 98.7496 112.246C97.9609 115.442 99.0349 118.838 101.49 121.007H117.021C118.124 121.007 119.143 120.541 119.857 119.747ZM132.295 121.007C133.227 121.007 133.573 120.049 133.307 119.449C130.587 113.317 126.647 107.861 121.66 103.3H116.315C112.652 103.3 109.26 101.966 106.663 99.6054C109.078 105.727 112.947 111.252 117.97 115.638C121.935 119.1 127.022 121.007 132.295 121.007ZM136.824 100.151C134.321 102.17 131.18 103.3 127.81 103.3H124.861C125.984 104.425 127.05 105.596 128.056 106.811C128.084 106.655 128.113 106.499 128.145 106.344C128.265 105.745 128.849 105.357 129.448 105.478C130.047 105.599 130.435 106.183 130.314 106.782C130.149 107.602 130.033 108.435 129.963 109.264C132.065 112.145 133.858 115.247 135.328 118.549C135.661 119.296 135.703 120.122 135.467 120.88C136.163 120.634 136.706 120.046 136.884 119.287C138.356 113.013 138.331 106.435 136.824 100.151ZM138.363 82.8071L134.741 76.5335C132.095 71.9499 127.355 69.2134 122.062 69.2134C116.77 69.2134 112.03 71.9499 109.383 76.5336L105.761 82.8072C103.559 86.6226 103.559 91.1782 105.761 94.9935C107.964 98.8086 111.909 101.086 116.315 101.086H127.81C132.215 101.086 136.16 98.8086 138.363 94.9933C140.566 91.1781 140.566 86.6225 138.363 82.8071ZM141.963 75.9802C141.963 72.5264 139.153 69.7165 135.7 69.7165C134.561 69.7165 133.462 70.0241 132.502 70.5962C134.145 71.8983 135.559 73.5232 136.658 75.4268L139.739 80.7631C141.131 79.5834 141.963 77.8338 141.963 75.9802Z" fill="url(#paint1_linear_101_1787)"/>
<g clip-path="url(#clip1_101_1787)">
<path d="M148.656 102.635C148.837 102.682 148.993 102.568 149.003 102.381C149.003 102.381 149.132 100.071 149.192 99.4334C149.242 98.8967 149.587 96.1765 149.587 96.1765C149.611 95.9911 149.478 95.8508 149.291 95.8647C149.291 95.8647 148.602 95.9163 148.264 95.8846C147.924 95.8527 147.252 95.6732 147.252 95.6732C147.072 95.625 146.915 95.7381 146.903 95.9247C146.903 95.9247 146.739 98.6293 146.69 99.1553C146.629 99.8035 146.323 102.13 146.323 102.13C146.298 102.315 146.431 102.454 146.617 102.439C146.617 102.439 147.254 102.387 147.575 102.415C147.933 102.446 148.656 102.635 148.656 102.635Z" fill="url(#paint2_linear_101_1787)"/>
<path d="M147.925 110.424C148.106 110.471 148.262 110.357 148.273 110.17C148.273 110.17 148.401 107.86 148.461 107.222C148.511 106.686 148.856 103.966 148.856 103.966C148.88 103.78 148.747 103.64 148.56 103.654C148.56 103.654 147.871 103.705 147.533 103.674C147.193 103.642 146.521 103.462 146.521 103.462C146.341 103.414 146.184 103.527 146.172 103.714C146.172 103.714 146.008 106.418 145.959 106.944C145.898 107.593 145.592 109.919 145.592 109.919C145.567 110.104 145.7 110.243 145.886 110.228C145.886 110.228 146.523 110.176 146.844 110.204C147.202 110.235 147.925 110.424 147.925 110.424Z" fill="url(#paint3_linear_101_1787)"/>
<path d="M147.194 118.215C147.375 118.262 147.531 118.148 147.542 117.961C147.542 117.961 147.67 115.651 147.73 115.014C147.78 114.477 148.125 111.757 148.125 111.757C148.149 111.571 148.016 111.431 147.829 111.445C147.829 111.445 147.14 111.496 146.802 111.465C146.462 111.433 145.791 111.253 145.791 111.253C145.61 111.205 145.453 111.318 145.442 111.505C145.442 111.505 145.278 114.209 145.228 114.735C145.167 115.384 144.861 117.71 144.861 117.71C144.836 117.895 144.969 118.034 145.155 118.019C145.155 118.019 145.792 117.967 146.113 117.995C146.471 118.026 147.194 118.215 147.194 118.215Z" fill="url(#paint4_linear_101_1787)"/>
<path d="M152.145 106.006C151.05 106.999 149.673 107.377 149.526 107.249C149.378 107.119 149.78 105.889 150.875 104.896C151.971 103.904 153.346 103.524 153.495 103.654C153.654 103.793 153.241 105.013 152.145 106.006Z" fill="url(#paint5_linear_101_1787)"/>
<path d="M152.397 108.765C151.227 108.829 150.236 108.272 150.224 108.09C150.211 107.905 151.119 107.248 152.289 107.185C153.46 107.121 154.45 107.675 154.463 107.86C154.476 108.059 153.568 108.702 152.397 108.765Z" fill="url(#paint6_linear_101_1787)"/>
<path d="M150.089 110.381C149.57 109.556 149.555 108.685 149.677 108.625C149.8 108.563 150.625 109.031 151.144 109.856C151.664 110.681 151.68 111.551 151.557 111.613C151.424 111.678 150.608 111.207 150.089 110.381Z" fill="url(#paint7_linear_101_1787)"/>
<path d="M139.491 109.442C139.674 109.401 139.76 109.227 139.683 109.057C139.683 109.057 138.838 107.187 138.621 106.652C138.438 106.202 137.593 103.915 137.593 103.915C137.528 103.74 137.345 103.677 137.187 103.775C137.187 103.775 136.686 104.085 136.402 104.201C136.117 104.317 135.538 104.445 135.538 104.445C135.355 104.486 135.268 104.659 135.344 104.829C135.344 104.829 136.325 107.03 136.504 107.471C136.725 108.014 137.437 109.97 137.437 109.97C137.501 110.146 137.683 110.208 137.841 110.109C137.841 110.109 138.3 109.82 138.568 109.709C138.867 109.585 139.491 109.442 139.491 109.442Z" fill="url(#paint8_linear_101_1787)"/>
<path d="M142.148 115.976C142.33 115.934 142.416 115.761 142.339 115.59C142.339 115.59 141.495 113.72 141.277 113.185C141.094 112.735 140.25 110.448 140.25 110.448C140.185 110.273 140.002 110.21 139.843 110.308C139.843 110.308 139.342 110.618 139.058 110.734C138.774 110.85 138.195 110.979 138.195 110.979C138.012 111.019 137.925 111.192 138.001 111.363C138.001 111.363 138.982 113.563 139.161 114.004C139.382 114.548 140.094 116.503 140.094 116.503C140.158 116.679 140.339 116.741 140.498 116.642C140.498 116.642 140.957 116.353 141.225 116.242C141.524 116.118 142.148 115.976 142.148 115.976Z" fill="url(#paint9_linear_101_1787)"/>
<path d="M144.805 122.507C144.987 122.465 145.073 122.292 144.997 122.122C144.997 122.122 144.152 120.251 143.935 119.717C143.752 119.266 142.907 116.979 142.907 116.979C142.842 116.804 142.659 116.741 142.501 116.839C142.501 116.839 142 117.15 141.716 117.265C141.431 117.381 140.852 117.51 140.852 117.51C140.669 117.551 140.582 117.723 140.658 117.894C140.658 117.894 141.639 120.094 141.818 120.535C142.04 121.079 142.751 123.035 142.751 123.035C142.815 123.21 142.997 123.273 143.155 123.173C143.155 123.173 143.614 122.884 143.882 122.773C144.181 122.649 144.805 122.507 144.805 122.507Z" fill="url(#paint10_linear_101_1787)"/>
<path d="M135.239 112.65C136.159 112.085 137.228 112.032 137.324 112.153C137.423 112.276 136.998 113.139 136.079 113.704C135.159 114.27 134.092 114.325 133.994 114.201C133.888 114.069 134.319 113.216 135.239 112.65Z" fill="url(#paint11_linear_101_1787)"/>
<path d="M136.005 110.108C136.775 110.618 137.061 111.427 136.959 111.545C136.856 111.665 135.894 111.645 135.124 111.135C134.354 110.625 134.067 109.818 134.17 109.698C134.281 109.569 135.235 109.598 136.005 110.108Z" fill="url(#paint12_linear_101_1787)"/>
</g>
</g>
<defs>
<linearGradient id="paint0_linear_101_1787" x1="-45.7461" y1="-1.28803e-06" x2="290.544" y2="102.084" gradientUnits="userSpaceOnUse">
<stop stop-color="#4BD8B5"/>
<stop offset="1" stop-color="#49D6DF"/>
</linearGradient>
<linearGradient id="paint1_linear_101_1787" x1="77.5629" y1="67" x2="154.632" y2="90.3583" gradientUnits="userSpaceOnUse">
<stop stop-color="#4BD8B5"/>
<stop offset="1" stop-color="#49D6DF"/>
</linearGradient>
<linearGradient id="paint2_linear_101_1787" x1="145.709" y1="95.6621" x2="150.514" y2="96.3452" gradientUnits="userSpaceOnUse">
<stop stop-color="#4BD8B5"/>
<stop offset="1" stop-color="#49D6DF"/>
</linearGradient>
<linearGradient id="paint3_linear_101_1787" x1="144.978" y1="103.451" x2="149.784" y2="104.134" gradientUnits="userSpaceOnUse">
<stop stop-color="#4BD8B5"/>
<stop offset="1" stop-color="#49D6DF"/>
</linearGradient>
<linearGradient id="paint4_linear_101_1787" x1="144.247" y1="111.242" x2="149.053" y2="111.925" gradientUnits="userSpaceOnUse">
<stop stop-color="#4BD8B5"/>
<stop offset="1" stop-color="#49D6DF"/>
</linearGradient>
<linearGradient id="paint5_linear_101_1787" x1="148.744" y1="103.629" x2="154.174" y2="105.452" gradientUnits="userSpaceOnUse">
<stop stop-color="#4BD8B5"/>
<stop offset="1" stop-color="#49D6DF"/>
</linearGradient>
<linearGradient id="paint6_linear_101_1787" x1="149.432" y1="107.18" x2="153.273" y2="110.287" gradientUnits="userSpaceOnUse">
<stop stop-color="#4BD8B5"/>
<stop offset="1" stop-color="#49D6DF"/>
</linearGradient>
<linearGradient id="paint7_linear_101_1787" x1="149.239" y1="108.619" x2="152.128" y2="109.206" gradientUnits="userSpaceOnUse">
<stop stop-color="#4BD8B5"/>
<stop offset="1" stop-color="#49D6DF"/>
</linearGradient>
<linearGradient id="paint8_linear_101_1787" x1="134.496" y1="103.729" x2="140.812" y2="105.039" gradientUnits="userSpaceOnUse">
<stop stop-color="#4BD8B5"/>
<stop offset="1" stop-color="#49D6DF"/>
</linearGradient>
<linearGradient id="paint9_linear_101_1787" x1="137.153" y1="110.262" x2="143.468" y2="111.572" gradientUnits="userSpaceOnUse">
<stop stop-color="#4BD8B5"/>
<stop offset="1" stop-color="#49D6DF"/>
</linearGradient>
<linearGradient id="paint10_linear_101_1787" x1="139.81" y1="116.793" x2="146.125" y2="118.103" gradientUnits="userSpaceOnUse">
<stop stop-color="#4BD8B5"/>
<stop offset="1" stop-color="#49D6DF"/>
</linearGradient>
<linearGradient id="paint11_linear_101_1787" x1="133.351" y1="112.1" x2="137.467" y2="114.047" gradientUnits="userSpaceOnUse">
<stop stop-color="#4BD8B5"/>
<stop offset="1" stop-color="#49D6DF"/>
</linearGradient>
<linearGradient id="paint12_linear_101_1787" x1="133.622" y1="109.633" x2="137.187" y2="111.184" gradientUnits="userSpaceOnUse">
<stop stop-color="#4BD8B5"/>
<stop offset="1" stop-color="#49D6DF"/>
</linearGradient>
<clipPath id="clip0_101_1787">
<rect width="70" height="56.2205" fill="white" transform="translate(88 67)"/>
</clipPath>
<clipPath id="clip1_101_1787">
<rect width="27.559" height="27.559" fill="white" transform="translate(130.441 95.6621)"/>
</clipPath>
</defs>
</svg>
