<svg width="245" height="245" viewBox="0 0 245 245" fill="none" xmlns="http://www.w3.org/2000/svg">
<circle cx="122.5" cy="122.5" r="121" stroke="url(#paint0_linear_101_1673)" stroke-width="3"/>
<path d="M61.6328 150.953L64.25 144.781H67.9512L63.3711 153.893V159H59.8945V153.893L55.3242 144.781H59.0059L61.6328 150.953ZM67.7754 153.619C67.7754 152.564 67.9805 151.627 68.3906 150.807C68.8008 149.98 69.39 149.345 70.1582 148.902C70.9264 148.46 71.8281 148.238 72.8633 148.238C74.4453 148.238 75.6921 148.73 76.6035 149.713C77.515 150.689 77.9707 152.021 77.9707 153.707V153.824C77.9707 155.471 77.5117 156.78 76.5938 157.75C75.6823 158.714 74.4453 159.195 72.8828 159.195C71.3789 159.195 70.1712 158.746 69.2598 157.848C68.3483 156.943 67.8568 155.719 67.7852 154.176L67.7754 153.619ZM71.0664 153.824C71.0664 154.801 71.2194 155.517 71.5254 155.973C71.8314 156.428 72.2839 156.656 72.8828 156.656C74.0547 156.656 74.6536 155.755 74.6797 153.951V153.619C74.6797 151.725 74.0742 150.777 72.8633 150.777C71.763 150.777 71.1673 151.594 71.0762 153.229L71.0664 153.824ZM85.7148 157.857C85.0182 158.749 84.0775 159.195 82.8926 159.195C81.7337 159.195 80.8548 158.86 80.2559 158.189C79.6634 157.512 79.3672 156.542 79.3672 155.279V148.434H82.6582V155.299C82.6582 156.204 83.0977 156.656 83.9766 156.656C84.7318 156.656 85.2689 156.386 85.5879 155.846V148.434H88.8984V159H85.8125L85.7148 157.857ZM105.5 153.795C105.5 155.436 105.129 156.747 104.387 157.73C103.651 158.707 102.655 159.195 101.398 159.195C100.428 159.195 99.6309 158.84 99.0059 158.131V163.062H95.7148V148.434H98.791L98.8887 149.41C99.5202 148.629 100.35 148.238 101.379 148.238C102.681 148.238 103.693 148.72 104.416 149.684C105.139 150.641 105.5 151.959 105.5 153.639V153.795ZM102.209 153.59C102.209 151.715 101.662 150.777 100.568 150.777C99.7871 150.777 99.2663 151.057 99.0059 151.617V155.777C99.2923 156.363 99.8197 156.656 100.588 156.656C101.636 156.656 102.176 155.751 102.209 153.941V153.59ZM112.912 159C112.795 158.785 112.691 158.469 112.6 158.053C111.994 158.814 111.148 159.195 110.061 159.195C109.064 159.195 108.218 158.896 107.521 158.297C106.825 157.691 106.477 156.933 106.477 156.021C106.477 154.876 106.9 154.01 107.746 153.424C108.592 152.838 109.823 152.545 111.438 152.545H112.453V151.988C112.453 151.018 112.033 150.533 111.193 150.533C110.412 150.533 110.021 150.917 110.021 151.686H106.73C106.73 150.663 107.163 149.833 108.029 149.195C108.902 148.557 110.012 148.238 111.359 148.238C112.707 148.238 113.771 148.567 114.553 149.225C115.334 149.882 115.734 150.784 115.754 151.93V156.607C115.767 157.577 115.917 158.32 116.203 158.834V159H112.912ZM110.852 156.852C111.262 156.852 111.6 156.764 111.867 156.588C112.141 156.412 112.336 156.214 112.453 155.992V154.303H111.496C110.35 154.303 109.777 154.817 109.777 155.846C109.777 156.145 109.878 156.389 110.08 156.578C110.282 156.76 110.539 156.852 110.852 156.852ZM121.652 154.391L123.41 148.434H126.936L122.629 160.768L122.443 161.217C121.831 162.584 120.751 163.268 119.201 163.268C118.771 163.268 118.319 163.202 117.844 163.072V160.719H118.273C118.736 160.719 119.087 160.65 119.328 160.514C119.576 160.383 119.758 160.146 119.875 159.801L120.139 159.098L116.467 148.434H119.982L121.652 154.391ZM141.906 154.664L142.971 148.434H146.125L143.635 159H140.852L139.104 152.73L137.346 159H134.562L132.072 148.434H135.227L136.271 154.811L137.951 148.434H140.246L141.906 154.664ZM150.783 159H147.482V148.434H150.783V159ZM147.287 145.709C147.287 145.24 147.456 144.856 147.795 144.557C148.133 144.257 148.573 144.107 149.113 144.107C149.654 144.107 150.093 144.257 150.432 144.557C150.77 144.856 150.939 145.24 150.939 145.709C150.939 146.178 150.77 146.562 150.432 146.861C150.093 147.161 149.654 147.311 149.113 147.311C148.573 147.311 148.133 147.161 147.795 146.861C147.456 146.562 147.287 146.178 147.287 145.709ZM156.652 145.807V148.434H158.391V150.719H156.652V155.553C156.652 155.95 156.724 156.227 156.867 156.383C157.01 156.539 157.294 156.617 157.717 156.617C158.042 156.617 158.316 156.598 158.537 156.559V158.912C157.945 159.101 157.326 159.195 156.682 159.195C155.549 159.195 154.712 158.928 154.172 158.395C153.632 157.861 153.361 157.05 153.361 155.963V150.719H152.014V148.434H153.361V145.807H156.652ZM162.912 149.566C163.615 148.681 164.514 148.238 165.607 148.238C166.773 148.238 167.652 148.583 168.244 149.273C168.837 149.964 169.139 150.982 169.152 152.33V159H165.852V152.408C165.852 151.848 165.738 151.438 165.51 151.178C165.282 150.911 164.895 150.777 164.348 150.777C163.671 150.777 163.192 150.992 162.912 151.422V159H159.621V144H162.912V149.566ZM181.916 159C181.799 158.785 181.695 158.469 181.604 158.053C180.998 158.814 180.152 159.195 179.064 159.195C178.068 159.195 177.222 158.896 176.525 158.297C175.829 157.691 175.48 156.933 175.48 156.021C175.48 154.876 175.904 154.01 176.75 153.424C177.596 152.838 178.827 152.545 180.441 152.545H181.457V151.988C181.457 151.018 181.037 150.533 180.197 150.533C179.416 150.533 179.025 150.917 179.025 151.686H175.734C175.734 150.663 176.167 149.833 177.033 149.195C177.906 148.557 179.016 148.238 180.363 148.238C181.711 148.238 182.775 148.567 183.557 149.225C184.338 149.882 184.738 150.784 184.758 151.93V156.607C184.771 157.577 184.921 158.32 185.207 158.834V159H181.916ZM179.855 156.852C180.266 156.852 180.604 156.764 180.871 156.588C181.145 156.412 181.34 156.214 181.457 155.992V154.303H180.5C179.354 154.303 178.781 154.817 178.781 155.846C178.781 156.145 178.882 156.389 179.084 156.578C179.286 156.76 179.543 156.852 179.855 156.852ZM84.5723 178.133L87.4043 167.781H91.2324L86.4473 182H82.6973L77.9512 167.781H81.75L84.5723 178.133ZM95.9297 182H92.5117V167.781H95.9297V182ZM105.646 178.221C105.646 177.719 105.467 177.329 105.109 177.049C104.758 176.769 104.136 176.479 103.244 176.18C102.352 175.88 101.623 175.59 101.057 175.311C99.2142 174.406 98.293 173.162 98.293 171.58C98.293 170.792 98.5208 170.099 98.9766 169.5C99.4388 168.895 100.09 168.426 100.93 168.094C101.77 167.755 102.714 167.586 103.762 167.586C104.784 167.586 105.699 167.768 106.506 168.133C107.32 168.497 107.951 169.018 108.4 169.695C108.85 170.366 109.074 171.134 109.074 172H105.656C105.656 171.421 105.477 170.971 105.119 170.652C104.768 170.333 104.289 170.174 103.684 170.174C103.072 170.174 102.587 170.311 102.229 170.584C101.877 170.851 101.701 171.193 101.701 171.609C101.701 171.974 101.896 172.306 102.287 172.605C102.678 172.898 103.365 173.204 104.348 173.523C105.331 173.836 106.138 174.174 106.77 174.539C108.306 175.424 109.074 176.645 109.074 178.201C109.074 179.445 108.605 180.421 107.668 181.131C106.73 181.84 105.445 182.195 103.811 182.195C102.658 182.195 101.613 181.99 100.676 181.58C99.7448 181.163 99.0417 180.597 98.5664 179.881C98.0977 179.158 97.8633 178.328 97.8633 177.391H101.301C101.301 178.152 101.496 178.715 101.887 179.08C102.284 179.438 102.925 179.617 103.811 179.617C104.377 179.617 104.823 179.497 105.148 179.256C105.48 179.008 105.646 178.663 105.646 178.221ZM118.908 179.344H114.211L113.391 182H109.729L114.943 167.781H118.166L123.42 182H119.738L118.908 179.344ZM115.031 176.697H118.088L116.555 171.766L115.031 176.697ZM133.762 179.656C134.224 179.656 134.582 179.533 134.836 179.285C135.09 179.031 135.214 178.68 135.207 178.23H138.293C138.293 179.389 137.876 180.34 137.043 181.082C136.216 181.824 135.148 182.195 133.84 182.195C132.303 182.195 131.092 181.714 130.207 180.75C129.322 179.786 128.879 178.452 128.879 176.746V176.609C128.879 175.542 129.074 174.601 129.465 173.787C129.862 172.967 130.432 172.339 131.174 171.902C131.916 171.46 132.795 171.238 133.811 171.238C135.184 171.238 136.275 171.619 137.082 172.381C137.889 173.143 138.293 174.174 138.293 175.477H135.207C135.207 174.93 135.074 174.51 134.807 174.217C134.54 173.924 134.182 173.777 133.732 173.777C132.88 173.777 132.382 174.321 132.238 175.408C132.193 175.753 132.17 176.229 132.17 176.834C132.17 177.895 132.297 178.631 132.551 179.041C132.805 179.451 133.208 179.656 133.762 179.656ZM145.637 182C145.52 181.785 145.415 181.469 145.324 181.053C144.719 181.814 143.872 182.195 142.785 182.195C141.789 182.195 140.943 181.896 140.246 181.297C139.549 180.691 139.201 179.933 139.201 179.021C139.201 177.876 139.624 177.01 140.471 176.424C141.317 175.838 142.548 175.545 144.162 175.545H145.178V174.988C145.178 174.018 144.758 173.533 143.918 173.533C143.137 173.533 142.746 173.917 142.746 174.686H139.455C139.455 173.663 139.888 172.833 140.754 172.195C141.626 171.557 142.736 171.238 144.084 171.238C145.432 171.238 146.496 171.567 147.277 172.225C148.059 172.882 148.459 173.784 148.479 174.93V179.607C148.492 180.577 148.641 181.32 148.928 181.834V182H145.637ZM143.576 179.852C143.986 179.852 144.325 179.764 144.592 179.588C144.865 179.412 145.061 179.214 145.178 178.992V177.303H144.221C143.075 177.303 142.502 177.817 142.502 178.846C142.502 179.145 142.603 179.389 142.805 179.578C143.007 179.76 143.264 179.852 143.576 179.852ZM156.701 174.412L155.617 174.334C154.582 174.334 153.918 174.66 153.625 175.311V182H150.334V171.434H153.42L153.527 172.791C154.081 171.756 154.852 171.238 155.842 171.238C156.193 171.238 156.499 171.277 156.76 171.355L156.701 174.412ZM157.277 176.639C157.277 174.965 157.639 173.647 158.361 172.684C159.084 171.72 160.093 171.238 161.389 171.238C162.333 171.238 163.127 171.609 163.771 172.352V167H167.072V182H164.113L163.947 180.867C163.27 181.753 162.411 182.195 161.369 182.195C160.113 182.195 159.117 181.714 158.381 180.75C157.645 179.786 157.277 178.416 157.277 176.639ZM160.568 176.844C160.568 178.719 161.115 179.656 162.209 179.656C162.938 179.656 163.459 179.35 163.771 178.738V174.715C163.472 174.09 162.958 173.777 162.229 173.777C161.213 173.777 160.663 174.598 160.578 176.238L160.568 176.844Z" fill="#4F4F4F"/>
<path d="M151.748 86.0282H145.51L143.759 72.8179C143.509 71.0443 141.88 69.8007 140.103 70.0265L92.8239 76.2923C91.9671 76.4072 91.1911 76.8585 90.6677 77.5466C90.1419 78.2301 89.9124 79.0958 90.0303 79.9499L94.0196 110.036C94.2315 111.656 95.6127 112.867 97.2468 112.866C97.3868 112.866 97.5265 112.856 97.6653 112.838L100.797 112.425V119.634C100.797 121.43 102.253 122.886 104.049 122.886H151.748C153.544 122.886 155 121.43 155 119.634V89.2804C155 87.4843 153.544 86.0282 151.748 86.0282ZM143.324 86.0282H134.858L143.177 84.9257L143.324 86.0282ZM92.1767 79.6572C92.1386 79.3743 92.2159 79.0878 92.3913 78.8626C92.5657 78.6308 92.8258 78.4784 93.1133 78.4398L140.384 72.1761C140.978 72.1008 141.523 72.5155 141.61 73.1084L142.038 76.3368L92.6049 82.8921L92.1767 79.6572ZM100.797 110.238L97.3867 110.688C96.7932 110.767 96.2481 110.35 96.1693 109.757C96.1693 109.756 96.1693 109.756 96.1693 109.756L93.7507 91.481L100.797 90.5498V110.238ZM100.94 88.3449L93.4602 89.3314L92.8911 85.0428L142.324 78.4864L142.649 80.9711L142.89 82.7761L118.359 86.0282H104.049C102.616 86.0308 101.353 86.9718 100.94 88.3449ZM152.832 119.634C152.832 120.233 152.346 120.718 151.748 120.718H104.049C103.451 120.718 102.965 120.233 102.965 119.634V89.3129C102.965 89.3021 102.971 89.2912 102.971 89.2804C102.971 88.6817 103.456 88.1964 104.055 88.1964H151.748C152.346 88.1964 152.832 88.6817 152.832 89.2804V119.634Z" fill="url(#paint1_linear_101_1673)"/>
<path d="M137.596 102.313C138.032 101.991 138.417 101.606 138.739 101.171C140.521 103.57 143.911 104.07 146.31 102.287C148.709 100.505 149.209 97.1151 147.427 94.7159C146.404 93.3395 144.79 92.5291 143.075 92.5316C141.362 92.5363 139.753 93.3533 138.739 94.7333C136.961 92.3246 133.568 91.8131 131.159 93.5907C128.75 95.3683 128.239 98.7618 130.016 101.171C131.794 103.579 135.188 104.091 137.596 102.313ZM143.075 94.6997C144.871 94.6997 146.327 96.1557 146.327 97.9518C146.327 99.748 144.871 101.204 143.075 101.204C141.279 101.204 139.823 99.748 139.823 97.9518C139.823 96.1557 141.279 94.6997 143.075 94.6997ZM134.403 94.6997C136.199 94.6997 137.655 96.1557 137.655 97.9518C137.655 99.748 136.199 101.204 134.403 101.204C132.607 101.204 131.151 99.748 131.151 97.9518C131.151 96.1557 132.607 94.6997 134.403 94.6997Z" fill="url(#paint2_linear_101_1673)"/>
<path d="M109.47 93.6172H107.302V95.7853H109.47V93.6172Z" fill="url(#paint3_linear_101_1673)"/>
<path d="M124.646 93.6172H111.638V95.7853H124.646V93.6172Z" fill="url(#paint4_linear_101_1673)"/>
<path d="M124.647 97.9531H107.302V100.121H124.647V97.9531Z" fill="url(#paint5_linear_101_1673)"/>
<path d="M147.412 107.709H108.386C107.787 107.709 107.302 108.194 107.302 108.793V115.297C107.302 115.896 107.787 116.381 108.386 116.381H147.412C148.011 116.381 148.496 115.896 148.496 115.297V108.793C148.496 108.194 148.011 107.709 147.412 107.709ZM146.328 114.213H109.47V109.877H146.328V114.213Z" fill="url(#paint6_linear_101_1673)"/>
<defs>
<linearGradient id="paint0_linear_101_1673" x1="-45.7461" y1="-1.28803e-06" x2="290.544" y2="102.084" gradientUnits="userSpaceOnUse">
<stop stop-color="#4BD8B5"/>
<stop offset="1" stop-color="#49D6DF"/>
</linearGradient>
<linearGradient id="paint1_linear_101_1673" x1="77.8633" y1="70" x2="163.398" y2="101.912" gradientUnits="userSpaceOnUse">
<stop stop-color="#4BD8B5"/>
<stop offset="1" stop-color="#49D6DF"/>
</linearGradient>
<linearGradient id="paint2_linear_101_1673" x1="125.309" y1="92.5312" x2="147.852" y2="104.864" gradientUnits="userSpaceOnUse">
<stop stop-color="#4BD8B5"/>
<stop offset="1" stop-color="#49D6DF"/>
</linearGradient>
<linearGradient id="paint3_linear_101_1673" x1="106.897" y1="93.6172" x2="109.873" y2="94.5206" gradientUnits="userSpaceOnUse">
<stop stop-color="#4BD8B5"/>
<stop offset="1" stop-color="#49D6DF"/>
</linearGradient>
<linearGradient id="paint4_linear_101_1673" x1="109.209" y1="93.6172" x2="113.726" y2="101.844" gradientUnits="userSpaceOnUse">
<stop stop-color="#4BD8B5"/>
<stop offset="1" stop-color="#49D6DF"/>
</linearGradient>
<linearGradient id="paint5_linear_101_1673" x1="104.063" y1="97.9531" x2="107.833" y2="107.108" gradientUnits="userSpaceOnUse">
<stop stop-color="#4BD8B5"/>
<stop offset="1" stop-color="#49D6DF"/>
</linearGradient>
<linearGradient id="paint6_linear_101_1673" x1="99.61" y1="107.709" x2="119.666" y2="136.628" gradientUnits="userSpaceOnUse">
<stop stop-color="#4BD8B5"/>
<stop offset="1" stop-color="#49D6DF"/>
</linearGradient>
</defs>
</svg>
