<svg width="245" height="245" viewBox="0 0 245 245" fill="none" xmlns="http://www.w3.org/2000/svg">
<circle cx="122.5" cy="122.5" r="121" stroke="url(#paint0_linear_101_1722)" stroke-width="3"/>
<path d="M60.5586 154.176V159H57.1309V144.781H62.8047C63.8919 144.781 64.8522 144.983 65.6855 145.387C66.5254 145.784 67.1732 146.354 67.6289 147.096C68.0911 147.831 68.3223 148.668 68.3223 149.605C68.3223 150.992 67.8242 152.102 66.8281 152.936C65.8385 153.762 64.4779 154.176 62.7461 154.176H60.5586ZM60.5586 151.529H62.8047C63.4688 151.529 63.9733 151.363 64.3184 151.031C64.6699 150.699 64.8457 150.23 64.8457 149.625C64.8457 148.961 64.6667 148.43 64.3086 148.033C63.9505 147.636 63.4622 147.434 62.8438 147.428H60.5586V151.529ZM75.8418 159C75.7246 158.785 75.6204 158.469 75.5293 158.053C74.9238 158.814 74.0775 159.195 72.9902 159.195C71.9941 159.195 71.1478 158.896 70.4512 158.297C69.7546 157.691 69.4062 156.933 69.4062 156.021C69.4062 154.876 69.8294 154.01 70.6758 153.424C71.5221 152.838 72.7526 152.545 74.3672 152.545H75.3828V151.988C75.3828 151.018 74.9629 150.533 74.123 150.533C73.3418 150.533 72.9512 150.917 72.9512 151.686H69.6602C69.6602 150.663 70.0931 149.833 70.959 149.195C71.8314 148.557 72.9414 148.238 74.2891 148.238C75.6367 148.238 76.7012 148.567 77.4824 149.225C78.2637 149.882 78.6641 150.784 78.6836 151.93V156.607C78.6966 157.577 78.8464 158.32 79.1328 158.834V159H75.8418ZM73.7812 156.852C74.1914 156.852 74.5299 156.764 74.7969 156.588C75.0703 156.412 75.2656 156.214 75.3828 155.992V154.303H74.4258C73.2799 154.303 72.707 154.817 72.707 155.846C72.707 156.145 72.8079 156.389 73.0098 156.578C73.2116 156.76 73.4688 156.852 73.7812 156.852ZM84.582 154.391L86.3398 148.434H89.8652L85.5586 160.768L85.373 161.217C84.7611 162.584 83.6803 163.268 82.1309 163.268C81.7012 163.268 81.2487 163.202 80.7734 163.072V160.719H81.2031C81.6654 160.719 82.0169 160.65 82.2578 160.514C82.5052 160.383 82.6875 160.146 82.8047 159.801L83.0684 159.098L79.3965 148.434H82.9121L84.582 154.391ZM93.8398 148.434L93.9473 149.674C94.696 148.717 95.7018 148.238 96.9648 148.238C98.2995 148.238 99.2012 148.769 99.6699 149.83C100.386 148.769 101.421 148.238 102.775 148.238C104.917 148.238 106.018 149.534 106.076 152.125V159H102.775V152.33C102.775 151.79 102.684 151.396 102.502 151.148C102.32 150.901 101.988 150.777 101.506 150.777C100.855 150.777 100.37 151.067 100.051 151.646L100.061 151.783V159H96.7598V152.35C96.7598 151.796 96.6719 151.396 96.4961 151.148C96.3203 150.901 95.985 150.777 95.4902 150.777C94.8587 150.777 94.377 151.067 94.0449 151.646V159H90.7539V148.434H93.8398ZM113.068 159.195C111.447 159.195 110.135 158.714 109.133 157.75C108.13 156.78 107.629 155.52 107.629 153.971V153.697C107.629 152.617 107.827 151.663 108.225 150.836C108.628 150.009 109.214 149.371 109.982 148.922C110.751 148.466 111.662 148.238 112.717 148.238C114.201 148.238 115.373 148.701 116.232 149.625C117.092 150.543 117.521 151.826 117.521 153.473V154.752H110.979C111.096 155.344 111.353 155.81 111.75 156.148C112.147 156.487 112.661 156.656 113.293 156.656C114.335 156.656 115.148 156.292 115.734 155.562L117.238 157.34C116.828 157.906 116.245 158.359 115.49 158.697C114.742 159.029 113.934 159.195 113.068 159.195ZM112.697 150.777C111.734 150.777 111.161 151.415 110.979 152.691H114.299V152.438C114.312 151.91 114.178 151.503 113.898 151.217C113.618 150.924 113.218 150.777 112.697 150.777ZM121.877 148.434L121.984 149.674C122.714 148.717 123.719 148.238 125.002 148.238C126.102 148.238 126.923 148.567 127.463 149.225C128.01 149.882 128.293 150.872 128.312 152.193V159H125.012V152.33C125.012 151.796 124.904 151.406 124.689 151.158C124.475 150.904 124.084 150.777 123.518 150.777C122.873 150.777 122.395 151.031 122.082 151.539V159H118.791V148.434H121.877ZM133.977 145.807V148.434H135.715V150.719H133.977V155.553C133.977 155.95 134.048 156.227 134.191 156.383C134.335 156.539 134.618 156.617 135.041 156.617C135.367 156.617 135.64 156.598 135.861 156.559V158.912C135.269 159.101 134.65 159.195 134.006 159.195C132.873 159.195 132.036 158.928 131.496 158.395C130.956 157.861 130.686 157.05 130.686 155.963V150.719H129.338V148.434H130.686V145.807H133.977ZM141.613 153.639C141.613 152.571 141.789 151.627 142.141 150.807C142.492 149.986 142.997 149.355 143.654 148.912C144.312 148.463 145.077 148.238 145.949 148.238C147.049 148.238 147.909 148.609 148.527 149.352L148.645 148.434H151.633V158.6C151.633 159.531 151.415 160.338 150.979 161.021C150.549 161.712 149.924 162.239 149.104 162.604C148.283 162.975 147.333 163.16 146.252 163.16C145.477 163.16 144.725 163.014 143.996 162.721C143.273 162.428 142.72 162.047 142.336 161.578L143.713 159.645C144.325 160.367 145.132 160.729 146.135 160.729C147.593 160.729 148.322 159.98 148.322 158.482V158.15C147.691 158.847 146.893 159.195 145.93 159.195C144.641 159.195 143.599 158.704 142.805 157.721C142.01 156.731 141.613 155.41 141.613 153.756V153.639ZM144.914 153.844C144.914 154.71 145.077 155.396 145.402 155.904C145.728 156.406 146.184 156.656 146.77 156.656C147.479 156.656 147.997 156.419 148.322 155.943V151.5C148.003 151.018 147.492 150.777 146.789 150.777C146.203 150.777 145.744 151.041 145.412 151.568C145.08 152.089 144.914 152.848 144.914 153.844ZM153.088 153.619C153.088 152.564 153.293 151.627 153.703 150.807C154.113 149.98 154.702 149.345 155.471 148.902C156.239 148.46 157.141 148.238 158.176 148.238C159.758 148.238 161.005 148.73 161.916 149.713C162.827 150.689 163.283 152.021 163.283 153.707V153.824C163.283 155.471 162.824 156.78 161.906 157.75C160.995 158.714 159.758 159.195 158.195 159.195C156.691 159.195 155.484 158.746 154.572 157.848C153.661 156.943 153.169 155.719 153.098 154.176L153.088 153.619ZM156.379 153.824C156.379 154.801 156.532 155.517 156.838 155.973C157.144 156.428 157.596 156.656 158.195 156.656C159.367 156.656 159.966 155.755 159.992 153.951V153.619C159.992 151.725 159.387 150.777 158.176 150.777C157.076 150.777 156.48 151.594 156.389 153.229L156.379 153.824ZM169.846 159.195C168.225 159.195 166.913 158.714 165.91 157.75C164.908 156.78 164.406 155.52 164.406 153.971V153.697C164.406 152.617 164.605 151.663 165.002 150.836C165.406 150.009 165.992 149.371 166.76 148.922C167.528 148.466 168.439 148.238 169.494 148.238C170.979 148.238 172.15 148.701 173.01 149.625C173.869 150.543 174.299 151.826 174.299 153.473V154.752H167.756C167.873 155.344 168.13 155.81 168.527 156.148C168.924 156.487 169.439 156.656 170.07 156.656C171.112 156.656 171.926 156.292 172.512 155.562L174.016 157.34C173.605 157.906 173.023 158.359 172.268 158.697C171.519 159.029 170.712 159.195 169.846 159.195ZM169.475 150.777C168.511 150.777 167.938 151.415 167.756 152.691H171.076V152.438C171.089 151.91 170.956 151.503 170.676 151.217C170.396 150.924 169.995 150.777 169.475 150.777ZM181.164 156.031C181.164 155.751 181.018 155.527 180.725 155.357C180.432 155.188 179.875 155.012 179.055 154.83C178.234 154.648 177.557 154.41 177.023 154.117C176.49 153.818 176.083 153.456 175.803 153.033C175.523 152.61 175.383 152.125 175.383 151.578C175.383 150.608 175.783 149.811 176.584 149.186C177.385 148.554 178.433 148.238 179.729 148.238C181.122 148.238 182.242 148.554 183.088 149.186C183.934 149.817 184.357 150.647 184.357 151.676H181.057C181.057 150.829 180.611 150.406 179.719 150.406C179.374 150.406 179.084 150.504 178.85 150.699C178.615 150.888 178.498 151.126 178.498 151.412C178.498 151.705 178.641 151.943 178.928 152.125C179.214 152.307 179.67 152.457 180.295 152.574C180.926 152.691 181.48 152.831 181.955 152.994C183.544 153.541 184.338 154.521 184.338 155.934C184.338 156.897 183.908 157.682 183.049 158.287C182.196 158.893 181.089 159.195 179.729 159.195C178.824 159.195 178.016 159.033 177.307 158.707C176.597 158.382 176.044 157.939 175.646 157.379C175.249 156.819 175.051 156.23 175.051 155.611H178.127C178.14 156.1 178.303 156.458 178.615 156.686C178.928 156.907 179.328 157.018 179.816 157.018C180.266 157.018 180.601 156.926 180.822 156.744C181.05 156.562 181.164 156.324 181.164 156.031ZM82.1113 168.807V171.434H83.8496V173.719H82.1113V178.553C82.1113 178.95 82.1829 179.227 82.3262 179.383C82.4694 179.539 82.7526 179.617 83.1758 179.617C83.5013 179.617 83.7747 179.598 83.9961 179.559V181.912C83.4036 182.101 82.7852 182.195 82.1406 182.195C81.0078 182.195 80.1712 181.928 79.6309 181.395C79.0905 180.861 78.8203 180.05 78.8203 178.963V173.719H77.4727V171.434H78.8203V168.807H82.1113ZM84.4453 176.619C84.4453 175.564 84.6504 174.627 85.0605 173.807C85.4707 172.98 86.0599 172.345 86.8281 171.902C87.5964 171.46 88.498 171.238 89.5332 171.238C91.1152 171.238 92.362 171.73 93.2734 172.713C94.1849 173.689 94.6406 175.021 94.6406 176.707V176.824C94.6406 178.471 94.1816 179.78 93.2637 180.75C92.3522 181.714 91.1152 182.195 89.5527 182.195C88.0488 182.195 86.8411 181.746 85.9297 180.848C85.0182 179.943 84.5267 178.719 84.4551 177.176L84.4453 176.619ZM87.7363 176.824C87.7363 177.801 87.8893 178.517 88.1953 178.973C88.5013 179.428 88.9538 179.656 89.5527 179.656C90.7246 179.656 91.3236 178.755 91.3496 176.951V176.619C91.3496 174.725 90.7441 173.777 89.5332 173.777C88.4329 173.777 87.8372 174.594 87.7461 176.229L87.7363 176.824ZM104.904 168.807V171.434H106.643V173.719H104.904V178.553C104.904 178.95 104.976 179.227 105.119 179.383C105.262 179.539 105.546 179.617 105.969 179.617C106.294 179.617 106.568 179.598 106.789 179.559V181.912C106.197 182.101 105.578 182.195 104.934 182.195C103.801 182.195 102.964 181.928 102.424 181.395C101.883 180.861 101.613 180.05 101.613 178.963V173.719H100.266V171.434H101.613V168.807H104.904ZM111.164 172.566C111.867 171.681 112.766 171.238 113.859 171.238C115.025 171.238 115.904 171.583 116.496 172.273C117.089 172.964 117.391 173.982 117.404 175.33V182H114.104V175.408C114.104 174.848 113.99 174.438 113.762 174.178C113.534 173.911 113.146 173.777 112.6 173.777C111.923 173.777 111.444 173.992 111.164 174.422V182H107.873V167H111.164V172.566ZM124.348 182.195C122.727 182.195 121.415 181.714 120.412 180.75C119.41 179.78 118.908 178.52 118.908 176.971V176.697C118.908 175.617 119.107 174.663 119.504 173.836C119.908 173.009 120.493 172.371 121.262 171.922C122.03 171.466 122.941 171.238 123.996 171.238C125.48 171.238 126.652 171.701 127.512 172.625C128.371 173.543 128.801 174.826 128.801 176.473V177.752H122.258C122.375 178.344 122.632 178.81 123.029 179.148C123.426 179.487 123.941 179.656 124.572 179.656C125.614 179.656 126.428 179.292 127.014 178.562L128.518 180.34C128.107 180.906 127.525 181.359 126.77 181.697C126.021 182.029 125.214 182.195 124.348 182.195ZM123.977 173.777C123.013 173.777 122.44 174.415 122.258 175.691H125.578V175.438C125.591 174.91 125.458 174.503 125.178 174.217C124.898 173.924 124.497 173.777 123.977 173.777ZM139.113 179.363H145.91V182H134.836V180.193L141.613 170.428H134.797V167.781H145.842V169.539L139.113 179.363ZM146.691 176.619C146.691 175.564 146.896 174.627 147.307 173.807C147.717 172.98 148.306 172.345 149.074 171.902C149.842 171.46 150.744 171.238 151.779 171.238C153.361 171.238 154.608 171.73 155.52 172.713C156.431 173.689 156.887 175.021 156.887 176.707V176.824C156.887 178.471 156.428 179.78 155.51 180.75C154.598 181.714 153.361 182.195 151.799 182.195C150.295 182.195 149.087 181.746 148.176 180.848C147.264 179.943 146.773 178.719 146.701 177.176L146.691 176.619ZM149.982 176.824C149.982 177.801 150.135 178.517 150.441 178.973C150.747 179.428 151.2 179.656 151.799 179.656C152.971 179.656 153.57 178.755 153.596 176.951V176.619C153.596 174.725 152.99 173.777 151.779 173.777C150.679 173.777 150.083 174.594 149.992 176.229L149.982 176.824ZM157.922 176.619C157.922 175.564 158.127 174.627 158.537 173.807C158.947 172.98 159.536 172.345 160.305 171.902C161.073 171.46 161.975 171.238 163.01 171.238C164.592 171.238 165.839 171.73 166.75 172.713C167.661 173.689 168.117 175.021 168.117 176.707V176.824C168.117 178.471 167.658 179.78 166.74 180.75C165.829 181.714 164.592 182.195 163.029 182.195C161.525 182.195 160.318 181.746 159.406 180.848C158.495 179.943 158.003 178.719 157.932 177.176L157.922 176.619ZM161.213 176.824C161.213 177.801 161.366 178.517 161.672 178.973C161.978 179.428 162.43 179.656 163.029 179.656C164.201 179.656 164.8 178.755 164.826 176.951V176.619C164.826 174.725 164.221 173.777 163.01 173.777C161.91 173.777 161.314 174.594 161.223 176.229L161.213 176.824Z" fill="#4F4F4F"/>
<g clip-path="url(#clip0_101_1722)">
<path d="M101.203 101.203C100.556 101.203 100.031 101.728 100.031 102.375C100.031 103.022 100.556 103.547 101.203 103.547C101.85 103.547 102.375 103.022 102.375 102.375C102.375 101.728 101.85 101.203 101.203 101.203Z" fill="url(#paint1_linear_101_1722)"/>
<path d="M150.656 117.143V73.5445C152.116 72.4457 153 70.7085 153 68.8594C153 65.6285 150.371 63 147.141 63C143.91 63 141.281 65.6285 141.281 68.8594C141.281 69.8123 141.518 70.7348 141.945 71.5567C136.144 68.9613 129.669 67.6014 123 67.6014C116.331 67.6014 109.856 68.9613 104.055 71.5567C104.482 70.7348 104.719 69.8123 104.719 68.8594C104.719 65.6285 102.09 63 98.8594 63C95.6285 63 93 65.6285 93 68.8594C93 70.7085 93.8839 72.4457 95.3438 73.5445V117.143C93.8497 118.267 93 119.985 93 121.828C93 122.475 93.5246 122.988 94.1719 122.988H103.538C103.541 122.988 103.544 122.989 103.547 122.989C104.053 122.989 104.508 122.67 104.663 122.185L104.664 122.183C104.665 122.179 104.666 122.176 104.667 122.172L115.871 87.1484C120.55 86.1118 125.449 86.1118 130.128 87.1484L141.332 122.172C141.334 122.176 141.335 122.179 141.336 122.183L141.337 122.185C141.489 122.662 141.939 122.989 142.453 122.989C142.455 122.989 142.459 122.988 142.461 122.988H151.828C152.475 122.988 153 122.475 153 121.828C153 119.984 152.15 118.267 150.656 117.143ZM98.8594 65.3438C100.798 65.3438 102.375 66.9209 102.375 68.8594C102.375 70.1107 101.701 71.2779 100.617 71.905C100.085 72.2125 99.4767 72.375 98.8594 72.375C98.2423 72.375 97.6348 72.2126 97.1021 71.9054C96.0176 71.2777 95.3438 70.1105 95.3438 68.8594C95.3438 66.9209 96.9209 65.3438 98.8594 65.3438ZM95.5432 120.656C96.0281 119.282 97.34 118.312 98.8594 118.312C100.401 118.312 101.699 119.305 102.176 120.656H95.5432ZM103.472 118.217C103.148 117.805 102.804 117.466 102.375 117.143V107.062C102.375 106.415 101.85 105.891 101.203 105.891C100.556 105.891 100.031 106.415 100.031 107.062V116.088C99.6469 116.01 99.2543 115.969 98.8594 115.969C98.4645 115.969 98.072 116.01 97.6875 116.088V74.5996C98.0719 74.678 98.4645 74.7188 98.8594 74.7188C99.2543 74.7188 99.6469 74.678 100.031 74.5996V97.6875C100.031 98.3347 100.556 98.8594 101.203 98.8594C101.85 98.8594 102.375 98.3347 102.375 97.6875V93.8292C105.481 91.1648 109.176 89.1295 113.18 87.8681L103.472 118.217ZM143.625 117.143C143.188 117.472 142.846 117.813 142.528 118.217L132.819 87.8682C136.824 89.1296 140.519 91.165 143.625 93.8293V117.143ZM143.625 82.388C142.639 81.8202 141.629 81.2939 140.605 80.8159C140.018 80.5418 139.321 80.7957 139.047 81.382C138.774 81.9684 139.027 82.6658 139.614 82.9396C140.987 83.5806 142.333 84.3131 143.625 85.121V90.8209C131.618 81.7423 114.335 81.7777 102.375 90.8208V85.121C103.667 84.3131 105.013 83.5806 106.386 82.9396C106.973 82.6658 107.226 81.9684 106.952 81.382C106.679 80.7954 105.981 80.5421 105.395 80.8159C104.371 81.294 103.361 81.8202 102.375 82.388V74.9916C114.803 68.312 131.197 68.312 143.625 74.9916V82.388ZM147.141 65.3438C149.079 65.3438 150.656 66.9209 150.656 68.8594C150.656 70.1107 149.982 71.2779 148.899 71.905C148.366 72.2125 147.758 72.375 147.141 72.375C146.524 72.375 145.916 72.2127 145.384 71.9055C144.299 71.2779 143.625 70.1107 143.625 68.8594C143.625 66.9209 145.202 65.3438 147.141 65.3438ZM148.312 74.5996V116.088C147.928 116.01 147.536 115.969 147.141 115.969C146.746 115.969 146.353 116.01 145.969 116.088V74.5996C146.353 74.678 146.746 74.7188 147.141 74.7188C147.536 74.7188 147.928 74.678 148.312 74.5996ZM143.824 120.656C144.31 119.279 145.624 118.312 147.141 118.312C148.682 118.312 149.98 119.305 150.457 120.656H143.824Z" fill="url(#paint2_linear_101_1722)"/>
<path d="M115.969 79.4062H114.11L116.797 76.7193C117.133 76.3841 117.233 75.88 117.051 75.4421C116.87 75.0043 116.443 74.7188 115.969 74.7188H111.281C110.634 74.7188 110.109 75.2434 110.109 75.8906C110.109 76.5379 110.634 77.0625 111.281 77.0625H113.14L110.453 79.7495C110.117 80.0846 110.017 80.5888 110.199 81.0266C110.38 81.4645 110.807 81.75 111.281 81.75H115.969C116.616 81.75 117.141 81.2254 117.141 80.5781C117.141 79.9309 116.616 79.4062 115.969 79.4062Z" fill="url(#paint3_linear_101_1722)"/>
<path d="M119.484 78.2344C119.484 80.1729 121.061 81.75 123 81.75C124.939 81.75 126.516 80.1729 126.516 78.2344C126.516 76.2959 124.939 74.7188 123 74.7188C121.061 74.7188 119.484 76.2959 119.484 78.2344ZM123 77.0625C123.646 77.0625 124.172 77.5882 124.172 78.2344C124.172 78.8805 123.646 79.4062 123 79.4062C122.354 79.4062 121.828 78.8805 121.828 78.2344C121.828 77.5882 122.354 77.0625 123 77.0625Z" fill="url(#paint4_linear_101_1722)"/>
<path d="M132.375 81.75C134.314 81.75 135.891 80.1729 135.891 78.2344C135.891 76.2959 134.314 74.7188 132.375 74.7188C130.436 74.7188 128.859 76.2959 128.859 78.2344C128.859 80.1729 130.436 81.75 132.375 81.75ZM132.375 77.0625C133.021 77.0625 133.547 77.5882 133.547 78.2344C133.547 78.8805 133.021 79.4062 132.375 79.4062C131.729 79.4062 131.203 78.8805 131.203 78.2344C131.203 77.5882 131.729 77.0625 132.375 77.0625Z" fill="url(#paint5_linear_101_1722)"/>
<path d="M123 91.8281C122.353 91.8281 121.828 92.3528 121.828 93V97.6875C121.828 98.3347 122.353 98.8594 123 98.8594C123.647 98.8594 124.172 98.3347 124.172 97.6875V93C124.172 92.3528 123.647 91.8281 123 91.8281Z" fill="url(#paint6_linear_101_1722)"/>
<path d="M123 103.547C122.353 103.547 121.828 104.072 121.828 104.719V109.406C121.828 110.053 122.353 110.578 123 110.578C123.647 110.578 124.172 110.053 124.172 109.406V104.719C124.172 104.072 123.647 103.547 123 103.547Z" fill="url(#paint7_linear_101_1722)"/>
<path d="M123 115.969C122.353 115.969 121.828 116.493 121.828 117.141V121.828C121.828 122.475 122.353 123 123 123C123.647 123 124.172 122.475 124.172 121.828V117.141C124.172 116.493 123.647 115.969 123 115.969Z" fill="url(#paint8_linear_101_1722)"/>
</g>
<defs>
<linearGradient id="paint0_linear_101_1722" x1="-45.7461" y1="-1.28803e-06" x2="290.544" y2="102.084" gradientUnits="userSpaceOnUse">
<stop stop-color="#4BD8B5"/>
<stop offset="1" stop-color="#49D6DF"/>
</linearGradient>
<linearGradient id="paint1_linear_101_1722" x1="99.5936" y1="101.203" x2="102.811" y2="102.18" gradientUnits="userSpaceOnUse">
<stop stop-color="#4BD8B5"/>
<stop offset="1" stop-color="#49D6DF"/>
</linearGradient>
<linearGradient id="paint2_linear_101_1722" x1="81.7969" y1="63" x2="164.151" y2="88.004" gradientUnits="userSpaceOnUse">
<stop stop-color="#4BD8B5"/>
<stop offset="1" stop-color="#49D6DF"/>
</linearGradient>
<linearGradient id="paint3_linear_101_1722" x1="108.796" y1="74.7187" x2="118.448" y2="77.6485" gradientUnits="userSpaceOnUse">
<stop stop-color="#4BD8B5"/>
<stop offset="1" stop-color="#49D6DF"/>
</linearGradient>
<linearGradient id="paint4_linear_101_1722" x1="118.172" y1="74.7187" x2="127.823" y2="77.6484" gradientUnits="userSpaceOnUse">
<stop stop-color="#4BD8B5"/>
<stop offset="1" stop-color="#49D6DF"/>
</linearGradient>
<linearGradient id="paint5_linear_101_1722" x1="127.547" y1="74.7187" x2="137.198" y2="77.6484" gradientUnits="userSpaceOnUse">
<stop stop-color="#4BD8B5"/>
<stop offset="1" stop-color="#49D6DF"/>
</linearGradient>
<linearGradient id="paint6_linear_101_1722" x1="121.391" y1="91.8281" x2="124.868" y2="92.18" gradientUnits="userSpaceOnUse">
<stop stop-color="#4BD8B5"/>
<stop offset="1" stop-color="#49D6DF"/>
</linearGradient>
<linearGradient id="paint7_linear_101_1722" x1="121.391" y1="103.547" x2="124.868" y2="103.899" gradientUnits="userSpaceOnUse">
<stop stop-color="#4BD8B5"/>
<stop offset="1" stop-color="#49D6DF"/>
</linearGradient>
<linearGradient id="paint8_linear_101_1722" x1="121.391" y1="115.969" x2="124.868" y2="116.321" gradientUnits="userSpaceOnUse">
<stop stop-color="#4BD8B5"/>
<stop offset="1" stop-color="#49D6DF"/>
</linearGradient>
<clipPath id="clip0_101_1722">
<rect width="60" height="60" fill="white" transform="translate(93 63)"/>
</clipPath>
</defs>
</svg>
